<svg version="1.1" id="Laag_1" xmlns="http://www.w3.org/2000/svg" x="0" y="0" viewBox="25.73 26.67 356.96 356.96"><path fill="#fff" class="st0" d="m105.62 292.8-7.57 4.22-7.2-8.43 7.56-4.22-4.33-5.05-19.73 11.05 4.33 5.05 6.57-3.66-1.57-3.54 9.77 11.41-7.56 4.22 4.32 5.05 19.73-11.05zM128.78 316.1c.21-.51.32-1.02.32-1.55s-.12-1.04-.36-1.54-.59-.93-1.05-1.3l-12.05-9.54c-.7-.55-1.48-.83-2.36-.82-.88 0-1.66.3-2.34.89l-14.92 12.67 5.22 4.13 4.89-4.13 7.53 5.96-4.89 4.13 5.22 4.13 13.81-11.73c.44-.36.77-.79.98-1.3zm-7.48-1.72-3.61 3.08-7.55-5.98 3.45-2.93-2.19-3.15 9.88 7.83c.18.14.28.33.28.56 0 .24-.08.43-.26.59zM183.01 352.36c-.15.56-.17 1.12-.06 1.66s.31 1.04.6 1.47c.3.44.68.79 1.16 1.07.48.28 1.01.44 1.6.48l16.14 1.22 1.4-5.07-13.08-.99a.727.727 0 0 1-.55-.31.739.739 0 0 1-.11-.63l.7-2.58 11.85.89 1.31-4.73-11.81-.89.66-2.36-3.61-1.39 17.91 1.35 1.43-5.07-20.66-1.56-4.88 17.44zM155.08 329.78c.11-.54.11-1.06.01-1.58s-.32-1-.65-1.44c-.33-.44-.76-.8-1.29-1.07l-19.01-9.73-14.05 17.72 5.92 3.03 3.99-5.01 7.22 3.7-.35 6.87 5.92 3.03.35-6.87 1.27.65c.79.4 1.61.51 2.47.32.86-.19 1.56-.63 2.1-1.33l5.41-6.81c.35-.45.58-.95.69-1.48zm-7.68-.23-2.57 3.28c-.11.13-.26.21-.43.24-.17.03-.33.01-.48-.07l-10.66-5.46 2.81-3.54-2.77-2.66 13.87 7.1c.21.1.33.27.37.49.05.23 0 .43-.14.62zM183.69 337.59c-.01-.55-.11-1.06-.32-1.55a3.6 3.6 0 0 0-.93-1.27c-.42-.36-.91-.62-1.48-.78l-20.61-5.59-10.09 20.24 19.72 5.35c.78.21 1.54.28 2.31.21.76-.07 1.48-.25 2.15-.56.67-.31 1.29-.73 1.85-1.25.56-.53 1.01-1.15 1.36-1.86l5.67-11.33c.25-.53.37-1.06.37-1.61zm-7.56 1.36-4.7 9.46c-.09.15-.21.27-.37.34-.16.08-.32.09-.49.05l-11.53-3.13 4.86-9.81-3.04-1.97 14.83 4.02c.23.06.38.2.46.4.09.22.08.43-.02.64zM301.03 300.61l-10.37 7.82 2.27 4.75 7.84-5.91-2.27 3.1 4.48 9.32c.16.38.08.69-.22.92l-4.43 3.34a.747.747 0 0 1-1.12-.27l-1.09-2.23-5.31 4 1.78 3.73c.26.52.61.95 1.05 1.29.44.34.92.58 1.43.71.51.13 1.04.14 1.58.04s1.05-.34 1.52-.69l10.25-7.72c.71-.53 1.17-1.22 1.38-2.07.21-.85.11-1.67-.28-2.48l-8.49-17.65zM78.26 219.98c.6-.48.98-1.12 1.13-1.89l2.59-13.02c.11-.5.1-.98-.03-1.45-.13-.46-.34-.88-.64-1.24s-.66-.65-1.1-.86c-.44-.21-.91-.32-1.41-.32H67.74c-.78 0-1.47.24-2.06.72a3.09 3.09 0 0 0-1.11 1.9l-2.62 12.99c-.09.5-.08.99.06 1.46.13.47.34.89.63 1.25s.65.65 1.09.86c.44.21.92.32 1.44.32h11.04c.76.01 1.45-.23 2.05-.72zm-4.22-4.34c-.09.35-.31.53-.64.53h-4.65c-.2 0-.37-.08-.5-.25a.59.59 0 0 1-.14-.53l1.81-9.11c.04-.15.12-.27.24-.38.12-.1.26-.15.4-.15h4.65c.2 0 .37.08.5.24.13.16.18.34.14.54l-1.81 9.11zM319.98 280.22l-5.25 5.71-1.47 13.36-4.78-6.54-4.5 4.9 13.33 18.26 4.5-4.9-3.33-4.56-1.04 3.56.68-8.28 10.7 1.65 5.25-5.71-15.4-2.4zM339.65 202.38a3.09 3.09 0 0 0-1.09-.86c-.44-.21-.92-.32-1.44-.32h-4.93l-.92 4.54h3.07l-3.01 14.97h5.85l3.12-15.64c.11-.5.1-.98-.03-1.45-.12-.46-.33-.87-.62-1.24zM266.13 323.63l2.14 18.08-9.8-15.33-5.91 2.11-2.72 19.83-3.49 1.25 3.3-2.36-3.02-16.59-6.44 2.31 3.66 22.25 11.3-4.06 2.19-15.32 7.21 11.95 10.97-3.93-2.98-22.49zM279.78 321.74l3.38-1.93-1.66-5.01-5.77 3.31 7.17 21.45 5.77-3.31-5.15-15.37zM358.47 201.52c-.44-.21-.91-.32-1.41-.32h-11.87l-.92 4.54h9.11c.22 0 .4.09.54.26.14.18.19.38.15.6l-.33 1.76h-6.58c-.46 0-.91.08-1.34.24-.43.16-.81.38-1.14.65-.33.28-.62.61-.85.99-.23.38-.4.8-.49 1.27l-1.84 9.2h16.33l.89-4.54h-10.45l.67-3.4c.04-.15.12-.27.24-.36.12-.09.25-.14.4-.14h9.14l1.51-7.19c.11-.5.1-.98-.03-1.45-.13-.46-.34-.88-.64-1.24s-.65-.66-1.09-.87z"/><path fill="#fff" class="st0" d="M204.21 26.67c-98.41 0-178.48 80.07-178.48 178.48 0 98.42 80.07 178.48 178.48 178.48s178.48-80.07 178.48-178.48c0-98.42-80.07-178.48-178.48-178.48zm0 354.32c-96.96 0-175.84-78.88-175.84-175.84 0-96.96 78.88-175.84 175.84-175.84s175.84 78.88 175.84 175.84c0 96.96-78.88 175.84-175.84 175.84z"/><path fill="#fff" class="st0" d="m302.1 98.82 4.39-13.73-7.99-7.77-6.71 22.88 2.99 5.36-4.46-4.34-10.23 7.21 8.21 7.98 11.66-8.26 27.08-3.08-8.81-8.58z"/><path fill="#fff" class="st0" d="M204.21 34.13c-94.3 0-171.02 76.72-171.02 171.02s76.72 171.02 171.02 171.02 171.02-76.72 171.02-171.02S298.51 34.13 204.21 34.13zm0 339.4c-92.84 0-168.38-75.53-168.38-168.38S111.36 36.77 204.21 36.77c92.84 0 168.38 75.53 168.38 168.38s-75.54 168.38-168.38 168.38z"/><path fill="#fff" class="st0" d="m307.31 137.13 26.3-5.73-.76-6.03 2.53 5.68-23.06 17.32 4.05 9.08 31.89 2.49-27.83 6.63 4.4 9.86 34.96-7.89-8.22-18.43-24.22-1.08 18.25-12.31-7.74-17.38-34.96 7.89zM236.59 84.2c.5.6 1.11 1.06 1.84 1.4l22.21 10.21a9.314 9.314 0 0 0 6.27.56c1.01-.27 1.96-.71 2.87-1.31.9-.6 1.69-1.35 2.36-2.26l8.08-11.2-17.43-8.01-1.68 2.32c-.31.44-.52.93-.61 1.46-.1.53-.08 1.03.05 1.51s.36.93.68 1.34c.33.41.73.72 1.22.95l3.97 1.82-2.92 4.07c-.17.22-.4.36-.67.44-.27.08-.53.06-.78-.05l-13.55-6.22c-.34-.15-.55-.41-.64-.77-.1-.36-.03-.69.18-.99l9.35-12.89-4.6-4.05 30.11 13.83 4.92-6.74-29.7-13.64c-1.28-.59-2.58-.71-3.92-.36-1.34.34-2.42 1.1-3.25 2.26l-14.55 20a4.93 4.93 0 0 0-.92 2.12c-.13.75-.1 1.49.08 2.22.19.72.53 1.38 1.03 1.98zM168.73 63.3c.27.24.58.32.94.25l2.17-.43 2.92-14.91-6.45 1.28v12.9c.01.37.15.68.42.91zM211.69 179.37c.04.33.09.66.13.99.28-.2.57-.39.83-.6.12-.09.24-.18.35-.27l1.4-1.07c1.08-.82 2.16-1.65 3.24-2.47 4.05-3.09 8.1-6.19 12.17-9.26 2.07-1.57 4.11-3.32 6.45-4.49 1.16-.58 2.36-1.06 3.5-1.68a29.79 29.79 0 0 0 2.99-1.86c1.89-1.34 3.51-2.97 5.19-4.56.89-.84 1.78-1.68 2.68-2.51.97-.9 1.92-1.94 3-2.72.48-.35 1.05-.51 1.58-.78.5-.26 1.02-.5 1.52-.77.58-.31.82-.62 1.18-1.15.28-.41.6-.79.98-1.1.91-.73 2.1-.91 3.06-1.56 1.07-.72 2.07-1.65 2.9-2.63.44-.52-.7-.68-1.04-.79-.66-.21-1.33-.4-1.99-.6-.6-.19-1.21-.45-1.84-.31-.63.14-1.09.61-1.52 1.07-.96 1.01-1.92 2.02-2.92 3-.99.97-2.25 1.38-3.47 1.99-.53.27-.94.66-1.44.98-.5.31-1.1.5-1.64.72-1.2.48-2.41.94-3.62 1.42-2.05.8-4.07 1.65-6.06 2.59-1.85.88-3.7 1.75-5.48 2.77-.99.57-1.96 1.2-2.87 1.9-.93.71-1.73 1.55-2.6 2.33-1.6 1.46-3.48 2.52-5.41 3.48-2.43 1.21-4.85 2.43-7.27 3.66-2.54 1.29-5.08 2.58-7.61 3.87 2.67 2.9 3.15 6.69 3.61 10.36l.02.05z"/><path fill="#fff" class="st0" d="M89.27 205.7c0 63.28 51.41 114.78 114.66 114.94l.28.12.28-.12c63.25-.15 114.66-51.65 114.66-114.93 0-63.38-51.56-114.94-114.94-114.94S89.27 142.33 89.27 205.7zm2.64 0c0-27.32 9.82-52.39 26.1-71.88.43 77.03 23.39 123.56 42.69 149.07 15.2 20.09 30.25 30.53 37.88 34.97-59.31-2.94-106.67-52.12-106.67-112.16zm224.6 0c0 60.04-47.36 109.22-106.68 112.16 7.62-4.44 22.68-14.89 37.88-34.99 34.71-45.89 42.45-105.94 42.7-149.04 16.28 19.49 26.1 44.55 26.1 71.87zm-70.79 75.43c-18.95 25.11-38.12 35.1-41.51 36.74-3.39-1.63-22.56-11.62-41.51-36.72-34.41-45.59-41.91-105.49-42.06-148.2h167.15c-.27 76.7-22.99 122.89-42.07 148.18zm41.64-150.82h-166.3c20.56-22.65 50.22-36.9 83.15-36.9 32.93 0 62.59 14.25 83.15 36.9zM183.28 78.52c.56.71 1.27 1.29 2.13 1.74.86.45 1.8.68 2.8.7l22.94.37c1.54.02 2.91-.44 4.11-1.39 1.2-.95 1.97-2.18 2.29-3.68l1.9-8.76c.22-.97.21-1.89-.01-2.79-.22-.89-.59-1.69-1.12-2.4a6.58 6.58 0 0 0-1.95-1.76c-.78-.46-1.65-.74-2.62-.82l-.95-.07c-.64-.01-1.46-.02-2.46-.04l-13.3-.22c-.37-.01-.67-.15-.9-.44-.23-.29-.31-.61-.24-.98l.44-2.1-5.79-1.85 19.98.32c.37.01.67.15.9.44.23.29.31.61.23.98l-.22.95 10.54.17.65-2.85c.22-1 .2-1.96-.05-2.89-.25-.92-.66-1.74-1.22-2.46a6.518 6.518 0 0 0-2.13-1.74 6.24 6.24 0 0 0-2.8-.7l-23.19-.38c-1.54-.02-2.91.44-4.11 1.39-1.2.95-1.97 2.18-2.29 3.68l-1.74 8.16c-.22 1-.21 1.97.03 2.91.24.94.63 1.77 1.19 2.48.56.71 1.27 1.29 2.13 1.74.86.45 1.8.68 2.8.7l16.26.26c.37.01.67.15.9.44.23.29.31.61.23.98l-.6 2.7 5.84 1.85-19.78-.32c-.37-.01-.67-.15-.9-.44-.23-.29-.31-.62-.23-.98l.22-.95-10.54-.17-.6 2.8c-.22 1-.21 1.97.03 2.91.24.97.64 1.8 1.2 2.51z"/><path fill="#fff" class="st0" d="m144.41 173.98-.06 1.02c-.06.94-.12 1.92-.22 2.89-.09.79-.36 1.45-.61 2.03-.02.04-.03.07-.05.11l1.13-.83.6 1.78c.32.94.59 1.75 1.19 2.34.48.47.95.77 1.33.83v-.02c-.03-.18-.08-.36-.12-.54-.12-.5-.25-1.07-.26-1.66-.02-.87.37-1.58.65-2.11l.07-.13c.18-.34.38-.68.58-1.02.18-.3.35-.59.51-.9l.12-.22c.13-.23.25-.46.36-.7.07-.17.1-.41.12-.71.02-.26.05-.51.1-.78.35-1.83 1.51-3.18 2.54-4.37.35-.41.69-.8.98-1.19.74-.99 1.19-1.85 1.44-2.7.13-.46.2-.94.22-1.42 0-.17-.01-.34-.02-.51-.01-.12-.02-.25-.02-.37-.03-.58.12-1.07.23-1.46l.59-2.09 1.61 1.24c.14.1.28.21.43.32.77.56 1.72 1.25 2.18 2.34.27.64.44 1.33.54 2.19.08.69.18 1.64-.37 2.57-.58.96-1.3 1.71-2 2.43-.26.27-.52.54-.77.82-.82.91-1.37 1.93-1.61 2.94-.25 1.06-.13 2.15.33 3.06.49.96 1.27 1.95 1.91 2.74 1.25 1.56 2.66 2.83 4.2 3.78 2.01 1.23 4.23 2.22 6.2 3.09 1.92.85 4.03 1.61 6.66 2.38 1.76.52 3.34.97 4.95 1.23.06.01.13.03.21.05.02 0 .04.01.06.01.35 0 1.24.08 2.07.77.56.46 1.19.98 1.59 1.92h.08l.26 1.05c.02.08.06.16.09.25.07.16.13.31.17.46.49 1.63 1.1 3.29 1.69 4.89l.29.77c.2.54.43 1.07.68 1.63.25.56.5 1.13.72 1.73.23.62.42 1.27.57 1.95.05.2.08.42.11.63.02.12.03.23.06.35l.94-.02c1.99-.28 3.93-1.06 5.77-2.31.83-.57 1.62-1.21 2.45-1.89l.71-.57c.66-.53 1.34-1.05 2.02-1.56.52-.39 1.03-.77 1.54-1.17 0 0 1.94-1.52 2.18-1.7l.09-.07c.21-.16.4-.3.49-.42.24-.33.15-.66-.51-1.79-.08-.14-.16-.27-.24-.41-.68-1.21-1.47-2.65-2.16-4.18-.88-1.93-.15-3.85 1.86-4.88.45-.23.9-.46 1.36-.68.66-.33 1.32-.65 1.97-1l.27-.15c.96-.52 2.05-1.1 2.5-1.87.07-.13.06-.42.03-.75-.02-.18-.21-1.23-.37-2.17-.08-.54-.14-1.08-.21-1.63-.44-3.54-.86-6.88-3.16-9.25l-.05-.05c-.02 0-.06-.01-.11-.01-.14 0-.44.04-.95.28-5.12 2.46-9.66 3.96-13.89 4.57-.45.07-.84.1-1.23.1s-.78-.03-1.17-.1l-3.31-.57 2.76-1.92c1.39-.97 2.78-1.93 4.18-2.89 2.01-1.39 4.02-2.77 6.02-4.17.93-.65 1.86-1.31 2.78-1.97.21-.15.43-.3.65-.45.64-.44 1.24-.85 1.71-1.33.58-.59 1.07-1.36 1.48-2.03l.06-.1c.37-.61.44-.77.38-.95-.35-1.15-2.11-2.04-3.56-2.19-.06 0-.14.04-.19.09-.03.04-.09.16-.13.24l-.26.51c-.18.34-.36.68-.52 1.04-.22.49-.35.86-.41 1.2-.02.09-.02.19-.03.29-.03.37-.06.87-.33 1.39-.49.93-1.46 1.3-2.17 1.56-.12.05-.24.09-.34.14-2.1.91-4.2 1.83-6.3 2.74-1.18.51-2.35 1.02-3.53 1.52-.07.03-.15.07-.24.11-.41.2-.97.48-1.62.48-.08 0-.17 0-.25-.01-.78-.09-1.34-.63-1.71-.99-.06-.06-.12-.12-.18-.17-.71-.6-1.41-1.21-2.11-1.83l-2.36-2.06 2.93-.45c.79-.12.95-.19 1.01-.34.18-.42.21-1.21.05-1.95-.18-.91-.69-1.87-1.28-1.87-.06 0-.11.01-.17.02-.68.13-1.48.3-2.2.57-.66.25-1.29.69-1.94 1.16l-.38.27c-.34.24-.67.44-1.33.45-.15 0-.31-.01-.46-.03-.05-.01-.1-.01-.16-.01-.29 0-.58.05-.88.15-.28.09-.57.23-.87.42-.17.11-.33.22-.53.38-.14.12-.5.44-1.07.44-.44 0-.84-.18-1.19-.55-.89-.92-1.34-2.01-1.32-3.15.02-.85.03-1.81-.06-2.74-.09-.92-.24-1.86-.46-2.81-.04-.17-.11-.47-.13-.52-.05-.04-.2-.12-.29-.17-.09-.05-.18-.09-.26-.14-1.37-.78-2.5-1.29-3.57-1.61-.89-.27-1.8-.41-2.69-.41-.61 0-1.22.07-1.8.2-1.64.37-3.06 1.38-4.01 2.84l-.83 1.29-1.19-.97c-.31-.25-.67-.4-.95-.4-.11 0-.21.02-.3.07-.12.07-.23.27-.4.66-.5 1.16-.97 2.25-1.27 3.39-.11.43-.19.88-.28 1.36-.14.76-.27 1.55-.57 2.37-.28.78-.62 1.52-.94 2.24-.17.36-.33.73-.49 1.1-.42.99-1.2 1.72-1.88 2.37-.17.16-.33.31-.48.46l-.24.24c-.8.81-1.63 1.65-2.42 2.49l-.47 2.66 1.04-.36-.18 2.02zM215.29 284.71l13.52-6.67v5.88l-16.96 13.23v-22.27l23.45-11.89v-7.24l-29.96 14.98v39.46l29.96-22.82.02-19.82-20.03 10.02zM236.17 335.06c-.37-.38-.81-.66-1.33-.85-.52-.19-1.07-.25-1.66-.19l-21.23 2.26-2.06 22.52 6.61-.7.6-6.37 8.07-.86 3.47 5.94 6.61-.7-3.47-5.94 1.42-.15c.88-.09 1.63-.46 2.24-1.08.61-.63.96-1.38 1.03-2.26l.8-8.66c.04-.58-.03-1.12-.24-1.63-.21-.51-.5-.95-.86-1.33zm-6.05 9.49a.757.757 0 0 1-.66.65l-11.91 1.27.41-4.51-3.77-.71 15.5-1.65c.23-.02.43.05.58.21.15.16.22.36.21.6l-.36 4.14zM179.63 266.3l23.43 11.89v-7.46l-29.96-14.98v19.09l23.44 11.57v10.74l-23.44-18.29v8.51l29.96 22.82v-27.66l-23.43-11.72zM207.9 260.45c.35-.19.76-.33.57-.76-.2-.47-.5-.91-.71-1.37-.9-1.94-1.41-4.03-1.72-6.14-.62-4.37-.4-8.8-.95-13.17-.3-2.34-1.02-4.52-1.92-6.69-.7-1.71-1.44-3.35-1.64-5.21-.22-1.99.03-4 .18-5.99.15-1.9.29-3.79.42-5.69.27-3.93.52-7.85.75-11.78-.3.23-.6.46-.88.67l-.03.02c-.62.46-1.31.98-1.95 1.5l-.7.57c-.87.71-1.69 1.39-2.62 2.01-2.13 1.45-4.41 2.35-6.75 2.69h-.03c.17.86.35 1.72.55 2.58 1.09 4.59 2.59 9.06 3.83 13.61.62 2.29 1.18 4.6 1.59 6.94.2 1.14.32 2.3.57 3.43.24 1.1.56 2.18.93 3.25.77 2.19 1.77 4.3 2.79 6.38.5 1.01.99 2.02 1.44 3.05.4.89.84 1.81.71 2.81-.2 1.53-1.72 2.78-3.12 3.19-.99.29-2.02.2-3.01-.02-.48-.11-.79-.15-1.23.15-.31.21-.52.41-.46.78.13.75.55 1.42 1.17 1.86.75.53 1.62.6 2.51.71 2.28.27 4.53.62 6.79 1.05 1.03.18 1.99.06 2.92-.43zM127.04 103.98l-7.22-25.93-5.98 1.11 5.53-2.86 18.6 22.04 8.83-4.56.67-31.98 8.21 27.4 9.59-4.95-9.87-34.45-17.93 9.25.31 24.25-13.34-17.52-16.9 8.72 9.86 34.45zM92.25 142.35l6.74-8.11-6.36-7.9 9.72-11.7 6.36 7.9 6.74-8.11-18.08-22.32a5.409 5.409 0 0 0-2.04-1.63 6.38 6.38 0 0 0-2.44-.56 5.59 5.59 0 0 0-2.45.51c-.8.36-1.5.9-2.1 1.62l-15.56 18.73a5.839 5.839 0 0 0-1.39 3.71c-.03 1.39.42 2.64 1.33 3.75l19.53 24.11zm-1.74-40.09c.23-.28.54-.42.9-.42.37 0 .67.15.91.43l4.75 5.84-9.75 11.74-4.51-5.57-5.07 3.36 12.77-15.38zM64.17 170.07c.86-.28 1.65-.75 2.37-1.4.72-.65 1.26-1.45 1.62-2.39L74 151.1c.13-.34.37-.57.72-.69s.68-.08 1 .12l2.33 1.49 3.75-4.85-7.1 18.46c-.13.34-.37.57-.72.69s-.68.08-1-.12l-.82-.53-3.78 9.84 2.43 1.52c.86.55 1.78.87 2.74.97.97.1 1.88.02 2.74-.26.86-.28 1.65-.75 2.37-1.4.72-.65 1.26-1.45 1.62-2.39l8.24-21.41c.55-1.44.59-2.88.11-4.34a6.228 6.228 0 0 0-2.67-3.42l-7.57-4.79c-.83-.54-1.71-.85-2.62-.95-.91-.1-1.79-.02-2.64.22-.85.25-1.62.66-2.33 1.23s-1.26 1.3-1.67 2.18l-.39.87c-.23.59-.52 1.36-.88 2.3l-4.77 12.42c-.13.34-.37.57-.72.69s-.68.08-1-.12l-1.82-1.13-3.73 4.8 7.17-18.65c.13-.34.37-.57.72-.69s.68-.08 1 .12l.82.53 3.78-9.84-2.45-1.59c-.86-.55-1.77-.86-2.73-.94-.96-.08-1.86.02-2.72.3-.86.28-1.65.75-2.37 1.4-.72.66-1.26 1.45-1.62 2.39l-8.33 21.65c-.55 1.44-.59 2.88-.11 4.34s1.37 2.6 2.67 3.42l7.06 4.44c.86.55 1.78.87 2.75.98.94.08 1.85-.01 2.71-.29zM60.02 202.38c-.3-.36-.66-.65-1.1-.86-.44-.21-.91-.32-1.41-.32H45.64l-.92 4.54h9.11c.22 0 .4.09.54.26.14.18.19.38.15.6l-.33 1.76h-6.58c-.46 0-.91.08-1.34.24-.43.16-.81.38-1.14.65-.33.28-.62.61-.85.99-.23.38-.4.8-.49 1.27l-1.84 9.2H58.3l.89-4.54H48.74l.67-3.4c.04-.15.12-.27.24-.36.12-.09.25-.14.4-.14h9.14l1.51-7.19c.11-.5.1-.98-.03-1.45-.14-.47-.35-.88-.65-1.25z"/></svg>