<svg version="1.1" id="Laag_1" xmlns="http://www.w3.org/2000/svg" x="0" y="0" style="enable-background:new 0 0 697.23 106.44" xml:space="preserve" viewBox="21.84 22.99 651.9 62.96"><path fill="#fff" class="st0" d="m22.08 72.09.99-5.03h18.88l-.36 1.71c-.12.66.03 1.25.45 1.75.42.51.96.77 1.62.77h35.42l-10.52-3.15.99-4.86c.12-.66-.03-1.24-.45-1.75-.42-.51-.96-.76-1.62-.76H38.36c-1.8 0-3.48-.39-5.03-1.17-1.56-.78-2.85-1.8-3.87-3.06s-1.75-2.73-2.2-4.41c-.45-1.68-.49-3.42-.13-5.22l2.88-14.65c.54-2.7 1.87-4.91 4-6.65 2.13-1.74 4.57-2.61 7.33-2.61h41.54c1.8 0 3.48.39 5.03 1.17 1.56.78 2.85 1.8 3.87 3.06s1.77 2.71 2.25 4.36c.48 1.65.54 3.37.18 5.17l-1.08 5.13h-18.9l.36-1.71c.12-.66-.03-1.24-.45-1.75-.42-.51-.96-.76-1.62-.76H36.74l10.43 3.15-.72 3.78c-.12.66.03 1.24.45 1.75.42.51.96.76 1.62.76h28.24l1.71.09c1.74.12 3.31.58 4.72 1.39 1.41.81 2.59 1.84 3.55 3.1s1.65 2.68 2.07 4.27c.42 1.59.45 3.25.09 4.99l-3.15 15.73c-.54 2.7-1.87 4.91-4 6.65-2.13 1.74-4.57 2.61-7.33 2.61h-41.1c-1.8 0-3.48-.39-5.03-1.17-1.56-.78-2.85-1.8-3.87-3.06s-1.75-2.73-2.2-4.41c-.45-1.68-.5-3.41-.14-5.21zM120.53 68.13l-3.6 17.8H98.06l10.88-54.49c.48-2.52 1.69-4.55 3.64-6.11 1.95-1.56 4.18-2.34 6.7-2.34h43.61c1.68 0 3.22.35 4.63 1.03 1.41.69 2.58 1.62 3.51 2.79.93 1.17 1.6 2.5 2.02 4 .42 1.5.45 3.06.09 4.68l-10.07 50.44h-18.88l3.6-17.8h-27.26zm30.21-14.74 2.61-13.22c.12-.66-.03-1.24-.45-1.75-.42-.51-.96-.76-1.62-.76H115.5l10.43 3.15-2.52 12.59h27.33zM236.25 85.93h-17.8l-11.51-50.35h-11.15l10.43 3.15-9.8 47.2H177L189.58 23h34.08l6.83 38.84L249.91 23h36.14l-12.59 62.94h-19.33l9.44-50.35-27.32 50.34zM289.83 45.65l4.5-22.66h11.78l-10.34 25.17h-3.96c-.66 0-1.18-.25-1.57-.76-.39-.5-.53-1.09-.41-1.75zM309.97 72.09l.99-5.03h18.88l-.36 1.71c-.12.66.03 1.25.45 1.75.42.51.96.77 1.62.77h35.42l-10.52-3.15.99-4.86c.12-.66-.03-1.24-.45-1.75-.42-.51-.96-.76-1.62-.76h-29.13c-1.8 0-3.48-.39-5.03-1.17-1.56-.78-2.85-1.8-3.87-3.06s-1.75-2.73-2.2-4.41c-.45-1.68-.49-3.42-.13-5.22l2.88-14.65c.54-2.7 1.87-4.91 4-6.65 2.13-1.74 4.57-2.61 7.33-2.61h41.54c1.8 0 3.47.39 5.03 1.17 1.56.78 2.85 1.8 3.87 3.06s1.77 2.71 2.25 4.36c.48 1.65.54 3.37.18 5.17L381 41.88h-18.88l.36-1.71c.12-.66-.03-1.24-.45-1.75-.42-.51-.96-.76-1.62-.76h-35.78l10.43 3.15-.72 3.78c-.12.66.03 1.24.45 1.75s.96.76 1.62.76h28.24l1.71.09c1.74.12 3.31.58 4.72 1.39 1.41.81 2.59 1.84 3.55 3.1s1.65 2.68 2.07 4.27c.42 1.59.45 3.25.09 4.99l-3.15 15.73c-.54 2.7-1.87 4.91-4 6.65-2.13 1.74-4.57 2.61-7.33 2.61h-41.09c-1.8 0-3.48-.39-5.04-1.17-1.56-.78-2.85-1.8-3.87-3.06s-1.75-2.73-2.2-4.41c-.45-1.67-.5-3.4-.14-5.2zM434.31 40.8l-5.57 27.96c-.12.66.03 1.25.45 1.75.42.51.96.77 1.62.77h26.7c.48 0 .91-.16 1.3-.5.39-.33.64-.73.76-1.21l1.71-8.81h-7.82c-.96 0-1.86-.21-2.7-.63-.84-.42-1.54-.97-2.11-1.66-.57-.69-.98-1.5-1.21-2.43a6.43 6.43 0 0 1-.09-2.83l.99-5.03h34.35l-4.77 24.28c-.42 1.98-1.14 3.79-2.16 5.44a17.46 17.46 0 0 1-3.69 4.27c-1.44 1.2-3.07 2.13-4.9 2.79-1.83.66-3.73.99-5.71.99h-43.79a9.3 9.3 0 0 1-4.05-.9c-1.26-.6-2.31-1.42-3.15-2.47a9.7 9.7 0 0 1-1.8-3.55c-.36-1.32-.39-2.7-.09-4.14l8.72-43.43c.48-2.52 1.68-4.55 3.6-6.11 1.92-1.56 4.14-2.34 6.65-2.34h58.53l-2.97 14.65H423.8l10.51 3.14zM564.14 23l-30.93 37.76-4.68 25.17h-20.5l4.14-22.03h11.15l-10.52-3.15L492.85 23h19.96l11.51 23.11L542.12 23h22.02zM623.93 85.93h-17.8l-11.51-50.35h-11.15l10.43 3.15-9.8 47.2h-19.42L577.27 23h34.08l6.83 38.84L637.6 23h36.14l-12.59 62.94h-19.33l9.44-50.35-27.33 50.34z"></path></svg>